<svg width="23" height="23" viewBox="0 0 23 23" fill="none" xmlns="http://www.w3.org/2000/svg">
<path d="M18.75 0H3.75C1.625 0 0 1.625 0 3.75V18.75C0 20.875 1.625 22.5 3.75 22.5H18.75C20.875 22.5 22.5 20.875 22.5 18.75V3.75C22.5 1.625 20.875 0 18.75 0ZM11.25 7.5C13.375 7.5 15 9.125 15 11.25C15 13.375 13.375 15 11.25 15C9.125 15 7.5 13.375 7.5 11.25C7.5 9.125 9.125 7.5 11.25 7.5ZM16 5C16 4.125 16.75 3.5 17.5 3.5C18.25 3.5 19 4.25 19 5C19 5.75 18.375 6.5 17.5 6.5C16.625 6.5 16 5.875 16 5ZM18.75 20H3.75C3 20 2.5 19.5 2.5 18.75V11.25H5C5 14.75 7.75 17.5 11.25 17.5C14.75 17.5 17.5 14.75 17.5 11.25H20V18.75C20 19.5 19.5 20 18.75 20Z" fill="white"/>
</svg>
