<svg width="23" height="19" viewBox="0 0 23 19" fill="none" xmlns="http://www.w3.org/2000/svg">
<path d="M19.8637 2.89125C20.8737 2.27125 21.5425 1.425 21.87 0.34875C20.9476 0.847636 19.9577 1.21016 18.9312 1.425C18.0525 0.48 16.94 0 15.6062 0C14.3025 0 13.2012 0.4575 12.3025 1.3475C11.8685 1.77013 11.5253 2.27693 11.294 2.83685C11.0627 3.39677 10.9482 3.99802 10.9575 4.60375C10.9575 4.99 11.0062 5.335 11.1037 5.6275C7.25875 5.49625 4.07625 3.90125 1.56875 0.83125C1.14375 1.5825 0.93125 2.3475 0.93125 3.13875C0.93125 4.765 1.6175 6.05375 2.9875 7C2.20625 6.93375 1.5175 6.73625 0.93125 6.4125C0.93125 7.57375 1.2725 8.54375 1.95625 9.3975C2.62044 10.2294 3.55647 10.8008 4.6 11.0113C4.21 11.1113 3.79875 11.1588 3.37625 11.1588C2.98625 11.1588 2.71 11.1263 2.54625 11.055C2.83375 12.0013 3.37625 12.7688 4.16 13.3563C4.9348 13.9446 5.87728 14.27 6.85 14.285C5.185 15.5913 3.28125 16.2375 1.1275 16.2375C0.6 16.2375 0.22625 16.23 0 16.19C2.12125 17.5675 4.4825 18.2513 7.095 18.2513C9.76875 18.2513 12.1312 17.5738 14.1875 16.2188C16.2437 14.8713 17.7612 13.2088 18.7362 11.2513C19.7004 9.35714 20.2025 7.26165 20.2012 5.13625V4.55125C21.0999 3.88866 21.878 3.07639 22.5012 2.15C21.6595 2.51483 20.7723 2.76417 19.8637 2.89125Z" fill="white"/>
</svg>
