<svg width="30" height="30" viewBox="0 0 30 30" fill="none" xmlns="http://www.w3.org/2000/svg">
<path d="M23.6125 8.76501C24.6225 8.14501 25.2913 7.29876 25.6188 6.22251C24.6964 6.72139 23.7065 7.08391 22.68 7.29876C21.8013 6.35376 20.6888 5.87376 19.355 5.87376C18.0513 5.87376 16.95 6.33126 16.0513 7.22126C15.6172 7.64389 15.2741 8.15069 15.0428 8.71061C14.8115 9.27053 14.697 9.87177 14.7063 10.4775C14.7063 10.8638 14.755 11.2088 14.8525 11.5013C11.0075 11.37 7.82503 9.77501 5.31753 6.70501C4.89253 7.45626 4.68003 8.22126 4.68003 9.01251C4.68003 10.6388 5.36628 11.9275 6.73628 12.8738C5.95503 12.8075 5.26628 12.61 4.68003 12.2863C4.68003 13.4475 5.02128 14.4175 5.70503 15.2713C6.36922 16.1032 7.30525 16.6745 8.34878 16.885C7.95878 16.985 7.54753 17.0325 7.12503 17.0325C6.73503 17.0325 6.45878 17 6.29503 16.9288C6.58253 17.875 7.12503 18.6425 7.90878 19.23C8.68358 19.8183 9.62606 20.1437 10.5988 20.1588C8.93378 21.465 7.03003 22.1113 4.87628 22.1113C4.34878 22.1113 3.97503 22.1038 3.74878 22.0638C5.87003 23.4413 8.23128 24.125 10.8438 24.125C13.5175 24.125 15.88 23.4475 17.9363 22.0925C19.9925 20.745 21.51 19.0825 22.485 17.125C23.4492 15.2309 23.9512 13.1354 23.95 11.01V10.425C24.8487 9.76241 25.6267 8.95015 26.25 8.02376C25.4083 8.38858 24.5211 8.63793 23.6125 8.76501Z" fill="#D4142C"/>
</svg>
